P1
# letter_a.pbma
25 25
0000000000000000000000000
0000000000001000000000000
0000000000011100000000000
0000000000111110000000000
0000000001111110000000000
0000000011111111000000000
0000000011100111000000000
0000000011000011000000000
0000000111000011100000000
0000000110000001100000000
0000001110000001110000000
0000001111111111110000000
0000011111111111111000000
0000011111111111111000000
0000011110000001111000000
0000111100000000111100000
0000111100000000111100000
0001111100000000111110000
0001111000000000011110000
0001110000000000001110000
0011110000000000001111000
0011110000000000001111000
0011100000000000000011100
0111100000000000000011110
0000000000000000000000000
